<svg width="90" height="18" viewBox="0 0 90 18" fill="none" xmlns="http://www.w3.org/2000/svg">
<path d="M4.568 17V11.624H8.456C12.056 11.624 14.024 9.2 14.024 6.32C14.024 3.416 12.056 0.991999 8.456 0.991999H0.44V17H4.568ZM7.904 8.024H4.568V4.592H7.904C9.008 4.592 9.824 5.216 9.824 6.32C9.824 7.4 9.008 8.024 7.904 8.024ZM20.888 17.288C24.872 17.288 27.224 14.456 27.224 11.192C27.224 7.928 24.872 5.12 20.888 5.12C16.952 5.12 14.576 7.928 14.576 11.192C14.576 14.456 16.952 17.288 20.888 17.288ZM20.888 14.024C19.28 14.024 18.392 12.752 18.392 11.192C18.392 9.656 19.28 8.384 20.888 8.384C22.52 8.384 23.432 9.656 23.432 11.192C23.432 12.752 22.52 14.024 20.888 14.024ZM34.7401 17.288C36.5161 17.288 38.4361 16.784 39.5881 15.752L38.0281 13.448C37.3801 14.072 35.9641 14.432 35.1481 14.432C33.4681 14.432 32.4601 13.448 32.2441 12.368H40.5001V11.576C40.5001 7.64 38.0041 5.12 34.5721 5.12C30.9481 5.12 28.4041 7.832 28.4041 11.192C28.4041 14.96 31.1641 17.288 34.7401 17.288ZM36.9721 9.968H32.1961C32.3401 9.128 32.9641 7.976 34.5721 7.976C36.2761 7.976 36.8761 9.152 36.9721 9.968ZM46.7126 17.288C48.0806 17.288 48.9926 16.952 49.4486 16.52L48.7286 13.736C48.6086 13.88 48.2006 14.024 47.7926 14.024C47.1446 14.024 46.7606 13.52 46.7606 12.848V8.624H49.1126V5.408H46.7606V2.24H43.0886V5.408H41.1686V8.624H43.0886V13.88C43.0886 16.112 44.3606 17.288 46.7126 17.288ZM55.409 17.288C58.745 17.288 60.689 15.656 60.689 13.448C60.689 8.696 53.945 10.016 53.945 8.672C53.945 8.192 54.545 7.832 55.409 7.832C56.801 7.832 58.121 8.432 58.817 9.104L60.233 6.656C58.985 5.744 57.329 5.12 55.385 5.12C52.169 5.12 50.417 6.896 50.417 8.936C50.417 13.592 57.161 12.104 57.161 13.616C57.161 14.144 56.705 14.504 55.601 14.504C54.233 14.504 52.385 13.736 51.521 12.968L49.985 15.512C51.209 16.592 53.345 17.288 55.409 17.288ZM64.466 17.288C65.69 17.288 66.722 16.256 66.722 15.032C66.722 13.808 65.69 12.776 64.466 12.776C63.242 12.776 62.21 13.808 62.21 15.032C62.21 16.256 63.242 17.288 64.466 17.288ZM72.7588 17V9.608C73.2388 8.96 74.5108 8.552 75.4708 8.552C75.8548 8.552 76.1668 8.6 76.3828 8.648V5.096C74.9908 5.096 73.5268 5.888 72.7588 6.824V5.408H69.0628V17H72.7588ZM89.5828 17V5.408H85.8868V12.896C85.4548 13.448 84.7348 14.024 83.6788 14.024C82.4788 14.024 81.7588 13.544 81.7588 12.152V5.408H78.0628V13.664C78.0628 15.8 79.2388 17.288 81.8788 17.288C83.8228 17.288 85.1668 16.424 85.8868 15.608V17H89.5828Z" fill="#18191C"/>
</svg>
